<mxfile host="app.diagrams.net" modified="2021-06-03T10:43:22.703Z" agent="5.0 (Macintosh; Intel Mac OS X 10_14_4) AppleWebKit/537.36 (KHTML, like Gecko) Chrome/90.0.4430.212 Safari/537.36" etag="uHAvc0MTgQjgJq5YIAFx" version="14.7.3" type="github" pages="2">
  <diagram name="Page-1" id="12e1b939-464a-85fe-373e-61e167be1490">
    <mxGraphModel dx="2066" dy="1074" grid="1" gridSize="10" guides="1" tooltips="1" connect="1" arrows="1" fold="1" page="1" pageScale="1.5" pageWidth="4681" pageHeight="3300" background="none" math="0" shadow="0">
      <root>
        <mxCell id="0" />
        <mxCell id="1" parent="0" />
        <mxCell id="60da8b9f42644d3a-2" value="" style="whiteSpace=wrap;html=1;rounded=1;shadow=0;strokeWidth=8;fontSize=20;align=center;fillColor=#FED217;strokeColor=#FFFFFF;" parent="1" vertex="1">
          <mxGeometry x="361" y="960" width="280" height="430" as="geometry" />
        </mxCell>
        <mxCell id="60da8b9f42644d3a-3" value="ATTRACT" style="text;html=1;strokeColor=none;fillColor=none;align=center;verticalAlign=middle;whiteSpace=wrap;rounded=0;shadow=0;fontSize=27;fontColor=#FFFFFF;fontStyle=1" parent="1" vertex="1">
          <mxGeometry x="367" y="1001" width="280" height="60" as="geometry" />
        </mxCell>
        <mxCell id="60da8b9f42644d3a-4" value="Blog&lt;div&gt;Keywords&lt;/div&gt;&lt;div&gt;Social Media&lt;/div&gt;" style="text;html=1;strokeColor=none;fillColor=none;align=center;verticalAlign=middle;whiteSpace=wrap;rounded=0;shadow=0;fontSize=14;fontColor=#FFFFFF;" parent="1" vertex="1">
          <mxGeometry x="367" y="1301" width="280" height="90" as="geometry" />
        </mxCell>
        <mxCell id="60da8b9f42644d3a-6" value="" style="line;strokeWidth=2;html=1;rounded=0;shadow=0;fontSize=27;align=center;fillColor=none;strokeColor=#FFFFFF;" parent="1" vertex="1">
          <mxGeometry x="387" y="1061" width="240" height="10" as="geometry" />
        </mxCell>
        <mxCell id="60da8b9f42644d3a-7" value="" style="line;strokeWidth=2;html=1;rounded=0;shadow=0;fontSize=27;align=center;fillColor=none;strokeColor=#FFFFFF;" parent="1" vertex="1">
          <mxGeometry x="387" y="1281" width="240" height="10" as="geometry" />
        </mxCell>
        <mxCell id="60da8b9f42644d3a-8" value="STRANGERS" style="ellipse;whiteSpace=wrap;html=1;rounded=0;shadow=0;strokeWidth=6;fontSize=14;align=center;fillColor=#BFB4A9;strokeColor=#FFFFFF;fontColor=#FFFFFF;" parent="1" vertex="1">
          <mxGeometry x="310" y="1121" width="115" height="115" as="geometry" />
        </mxCell>
        <mxCell id="60da8b9f42644d3a-9" value="" style="html=1;shadow=0;dashed=0;align=center;verticalAlign=middle;shape=mxgraph.arrows2.stylisedArrow;dy=0.6;dx=40;notch=15;feather=0.4;rounded=0;strokeWidth=1;fontSize=27;strokeColor=none;fillColor=#fff2cc;" parent="1" vertex="1">
          <mxGeometry x="457" y="1149" width="100" height="60" as="geometry" />
        </mxCell>
        <mxCell id="60da8b9f42644d3a-17" value="" style="whiteSpace=wrap;html=1;rounded=1;shadow=0;strokeWidth=8;fontSize=20;align=center;fillColor=#FFC001;strokeColor=#FFFFFF;" parent="1" vertex="1">
          <mxGeometry x="647" y="960" width="280" height="430" as="geometry" />
        </mxCell>
        <mxCell id="60da8b9f42644d3a-18" value="CONVERT" style="text;html=1;strokeColor=none;fillColor=none;align=center;verticalAlign=middle;whiteSpace=wrap;rounded=0;shadow=0;fontSize=27;fontColor=#FFFFFF;fontStyle=1" parent="1" vertex="1">
          <mxGeometry x="648" y="975" width="280" height="60" as="geometry" />
        </mxCell>
        <mxCell id="60da8b9f42644d3a-19" value="Forms&lt;div&gt;Calls-to-Action&lt;/div&gt;&lt;div&gt;Landing Pages&lt;/div&gt;" style="text;html=1;strokeColor=none;fillColor=none;align=center;verticalAlign=middle;whiteSpace=wrap;rounded=0;shadow=0;fontSize=14;fontColor=#FFFFFF;" parent="1" vertex="1">
          <mxGeometry x="647" y="1301" width="280" height="90" as="geometry" />
        </mxCell>
        <mxCell id="60da8b9f42644d3a-20" value="" style="line;strokeWidth=2;html=1;rounded=0;shadow=0;fontSize=27;align=center;fillColor=none;strokeColor=#FFFFFF;" parent="1" vertex="1">
          <mxGeometry x="667" y="1061" width="240" height="10" as="geometry" />
        </mxCell>
        <mxCell id="60da8b9f42644d3a-21" value="" style="line;strokeWidth=2;html=1;rounded=0;shadow=0;fontSize=27;align=center;fillColor=none;strokeColor=#FFFFFF;" parent="1" vertex="1">
          <mxGeometry x="667" y="1281" width="240" height="10" as="geometry" />
        </mxCell>
        <mxCell id="60da8b9f42644d3a-22" value="VISITORS" style="ellipse;whiteSpace=wrap;html=1;rounded=0;shadow=0;strokeWidth=6;fontSize=14;align=center;fillColor=#397DAA;strokeColor=#FFFFFF;fontColor=#FFFFFF;" parent="1" vertex="1">
          <mxGeometry x="590" y="1121" width="115" height="115" as="geometry" />
        </mxCell>
        <mxCell id="60da8b9f42644d3a-23" value="" style="html=1;shadow=0;dashed=0;align=center;verticalAlign=middle;shape=mxgraph.arrows2.stylisedArrow;dy=0.6;dx=40;notch=15;feather=0.4;rounded=0;strokeWidth=1;fontSize=27;strokeColor=none;fillColor=#fff2cc;" parent="1" vertex="1">
          <mxGeometry x="737" y="1149" width="100" height="60" as="geometry" />
        </mxCell>
        <mxCell id="60da8b9f42644d3a-24" value="" style="whiteSpace=wrap;html=1;rounded=1;shadow=0;strokeWidth=8;fontSize=20;align=center;fillColor=#FFB001;strokeColor=#FFFFFF;" parent="1" vertex="1">
          <mxGeometry x="927" y="960" width="280" height="430" as="geometry" />
        </mxCell>
        <mxCell id="60da8b9f42644d3a-25" value="CLOSE" style="text;html=1;strokeColor=none;fillColor=none;align=center;verticalAlign=middle;whiteSpace=wrap;rounded=0;shadow=0;fontSize=27;fontColor=#FFFFFF;fontStyle=1" parent="1" vertex="1">
          <mxGeometry x="927" y="1001" width="280" height="60" as="geometry" />
        </mxCell>
        <mxCell id="60da8b9f42644d3a-26" value="Email&lt;div&gt;Signals&lt;/div&gt;&lt;div&gt;Workflows&lt;/div&gt;" style="text;html=1;strokeColor=none;fillColor=none;align=center;verticalAlign=middle;whiteSpace=wrap;rounded=0;shadow=0;fontSize=14;fontColor=#FFFFFF;" parent="1" vertex="1">
          <mxGeometry x="927" y="1301" width="280" height="90" as="geometry" />
        </mxCell>
        <mxCell id="60da8b9f42644d3a-27" value="" style="line;strokeWidth=2;html=1;rounded=0;shadow=0;fontSize=27;align=center;fillColor=none;strokeColor=#FFFFFF;" parent="1" vertex="1">
          <mxGeometry x="947" y="1061" width="240" height="10" as="geometry" />
        </mxCell>
        <mxCell id="60da8b9f42644d3a-28" value="" style="line;strokeWidth=2;html=1;rounded=0;shadow=0;fontSize=27;align=center;fillColor=none;strokeColor=#FFFFFF;" parent="1" vertex="1">
          <mxGeometry x="947" y="1281" width="240" height="10" as="geometry" />
        </mxCell>
        <mxCell id="60da8b9f42644d3a-29" value="LEADS" style="ellipse;whiteSpace=wrap;html=1;rounded=0;shadow=0;strokeWidth=6;fontSize=14;align=center;fillColor=#EF9353;strokeColor=#FFFFFF;fontColor=#FFFFFF;" parent="1" vertex="1">
          <mxGeometry x="870" y="1121" width="115" height="115" as="geometry" />
        </mxCell>
        <mxCell id="60da8b9f42644d3a-30" value="" style="html=1;shadow=0;dashed=0;align=center;verticalAlign=middle;shape=mxgraph.arrows2.stylisedArrow;dy=0.6;dx=40;notch=15;feather=0.4;rounded=0;strokeWidth=1;fontSize=27;strokeColor=none;fillColor=#fff2cc;" parent="1" vertex="1">
          <mxGeometry x="1017" y="1149" width="100" height="60" as="geometry" />
        </mxCell>
        <mxCell id="60da8b9f42644d3a-31" value="" style="whiteSpace=wrap;html=1;rounded=1;shadow=0;strokeWidth=8;fontSize=20;align=center;fillColor=#FE9900;strokeColor=#FFFFFF;" parent="1" vertex="1">
          <mxGeometry x="1207" y="960" width="280" height="430" as="geometry" />
        </mxCell>
        <mxCell id="60da8b9f42644d3a-32" value="DELIGHT" style="text;html=1;strokeColor=none;fillColor=none;align=center;verticalAlign=middle;whiteSpace=wrap;rounded=0;shadow=0;fontSize=27;fontColor=#FFFFFF;fontStyle=1" parent="1" vertex="1">
          <mxGeometry x="1207" y="1001" width="280" height="60" as="geometry" />
        </mxCell>
        <mxCell id="60da8b9f42644d3a-33" value="Events&lt;div&gt;Social Inbox&lt;/div&gt;&lt;div&gt;Smart Content&lt;/div&gt;" style="text;html=1;strokeColor=none;fillColor=none;align=center;verticalAlign=middle;whiteSpace=wrap;rounded=0;shadow=0;fontSize=14;fontColor=#FFFFFF;" parent="1" vertex="1">
          <mxGeometry x="1207" y="1301" width="280" height="90" as="geometry" />
        </mxCell>
        <mxCell id="60da8b9f42644d3a-34" value="" style="line;strokeWidth=2;html=1;rounded=0;shadow=0;fontSize=27;align=center;fillColor=none;strokeColor=#FFFFFF;" parent="1" vertex="1">
          <mxGeometry x="1227" y="1061" width="240" height="10" as="geometry" />
        </mxCell>
        <mxCell id="60da8b9f42644d3a-35" value="" style="line;strokeWidth=2;html=1;rounded=0;shadow=0;fontSize=27;align=center;fillColor=none;strokeColor=#FFFFFF;" parent="1" vertex="1">
          <mxGeometry x="1227" y="1281" width="240" height="10" as="geometry" />
        </mxCell>
        <mxCell id="60da8b9f42644d3a-36" value="CUSTOMERS" style="ellipse;whiteSpace=wrap;html=1;rounded=0;shadow=0;strokeWidth=6;fontSize=14;align=center;fillColor=#68B85C;strokeColor=#FFFFFF;fontColor=#FFFFFF;" parent="1" vertex="1">
          <mxGeometry x="1150" y="1121" width="115" height="115" as="geometry" />
        </mxCell>
        <mxCell id="60da8b9f42644d3a-37" value="" style="html=1;shadow=0;dashed=0;align=center;verticalAlign=middle;shape=mxgraph.arrows2.stylisedArrow;dy=0.6;dx=40;notch=15;feather=0.4;rounded=0;strokeWidth=1;fontSize=27;strokeColor=none;fillColor=#fff2cc;" parent="1" vertex="1">
          <mxGeometry x="1297" y="1149" width="100" height="60" as="geometry" />
        </mxCell>
        <mxCell id="60da8b9f42644d3a-38" value="PROMOTERS" style="ellipse;whiteSpace=wrap;html=1;rounded=0;shadow=0;strokeWidth=6;fontSize=14;align=center;fillColor=#BF639A;strokeColor=#FFFFFF;fontColor=#FFFFFF;" parent="1" vertex="1">
          <mxGeometry x="1430" y="1121" width="115" height="115" as="geometry" />
        </mxCell>
        <mxCell id="xA-Apx7FD3ZzfJ_9MI9g-39" value="" style="group" vertex="1" connectable="0" parent="1">
          <mxGeometry x="310" y="60" width="990" height="260" as="geometry" />
        </mxCell>
        <mxCell id="xA-Apx7FD3ZzfJ_9MI9g-9" value="" style="group" vertex="1" connectable="0" parent="xA-Apx7FD3ZzfJ_9MI9g-39">
          <mxGeometry width="910" height="50" as="geometry" />
        </mxCell>
        <mxCell id="xA-Apx7FD3ZzfJ_9MI9g-6" value="" style="rounded=1;whiteSpace=wrap;html=1;strokeColor=#FFFFFF;strokeWidth=1;fillColor=#66FF66;" vertex="1" parent="xA-Apx7FD3ZzfJ_9MI9g-9">
          <mxGeometry width="910" height="50" as="geometry" />
        </mxCell>
        <mxCell id="xA-Apx7FD3ZzfJ_9MI9g-8" value="Application" style="text;html=1;strokeColor=none;fillColor=none;align=center;verticalAlign=middle;whiteSpace=wrap;rounded=0;shadow=0;fontSize=27;fontColor=#FFFFFF;fontStyle=1" vertex="1" parent="xA-Apx7FD3ZzfJ_9MI9g-9">
          <mxGeometry x="234.3524096385542" width="383.73493975903614" height="50" as="geometry" />
        </mxCell>
        <mxCell id="xA-Apx7FD3ZzfJ_9MI9g-10" value="" style="group" vertex="1" connectable="0" parent="xA-Apx7FD3ZzfJ_9MI9g-39">
          <mxGeometry x="190" y="80" width="370" height="50" as="geometry" />
        </mxCell>
        <mxCell id="xA-Apx7FD3ZzfJ_9MI9g-11" value="" style="rounded=1;whiteSpace=wrap;html=1;strokeColor=#FFFFFF;strokeWidth=1;fillColor=#999999;" vertex="1" parent="xA-Apx7FD3ZzfJ_9MI9g-10">
          <mxGeometry width="370" height="50" as="geometry" />
        </mxCell>
        <mxCell id="xA-Apx7FD3ZzfJ_9MI9g-12" value="Openstack" style="text;html=1;strokeColor=none;fillColor=none;align=center;verticalAlign=middle;whiteSpace=wrap;rounded=0;shadow=0;fontSize=27;fontColor=#FFFFFF;fontStyle=1" vertex="1" parent="xA-Apx7FD3ZzfJ_9MI9g-10">
          <mxGeometry x="95.28614457831326" width="156.02409638554215" height="50" as="geometry" />
        </mxCell>
        <mxCell id="xA-Apx7FD3ZzfJ_9MI9g-13" value="OPS平台" style="rounded=0;whiteSpace=wrap;html=1;strokeColor=#FFFFFF;strokeWidth=1;fillColor=#FFD966;gradientColor=none;" vertex="1" parent="xA-Apx7FD3ZzfJ_9MI9g-39">
          <mxGeometry x="932" width="58" height="255" as="geometry" />
        </mxCell>
        <mxCell id="xA-Apx7FD3ZzfJ_9MI9g-18" value="" style="group" vertex="1" connectable="0" parent="xA-Apx7FD3ZzfJ_9MI9g-39">
          <mxGeometry x="567" y="80" width="343" height="50" as="geometry" />
        </mxCell>
        <mxCell id="xA-Apx7FD3ZzfJ_9MI9g-16" value="" style="rounded=1;whiteSpace=wrap;html=1;strokeColor=#FFFFFF;strokeWidth=1;fillColor=#00CCCC;" vertex="1" parent="xA-Apx7FD3ZzfJ_9MI9g-18">
          <mxGeometry width="343" height="50" as="geometry" />
        </mxCell>
        <mxCell id="xA-Apx7FD3ZzfJ_9MI9g-17" value="Kubenetes" style="text;html=1;strokeColor=none;fillColor=none;align=center;verticalAlign=middle;whiteSpace=wrap;rounded=0;shadow=0;fontSize=27;fontColor=#FFFFFF;fontStyle=1" vertex="1" parent="xA-Apx7FD3ZzfJ_9MI9g-18">
          <mxGeometry x="88.3328313253012" width="144.63855421686745" height="50" as="geometry" />
        </mxCell>
        <mxCell id="xA-Apx7FD3ZzfJ_9MI9g-21" value="" style="group" vertex="1" connectable="0" parent="xA-Apx7FD3ZzfJ_9MI9g-39">
          <mxGeometry x="200" y="140" width="160" height="120" as="geometry" />
        </mxCell>
        <mxCell id="xA-Apx7FD3ZzfJ_9MI9g-19" value="" style="rounded=1;whiteSpace=wrap;html=1;fillColor=#FFD966;strokeColor=#FFFFFF;strokeWidth=1;" vertex="1" parent="xA-Apx7FD3ZzfJ_9MI9g-21">
          <mxGeometry width="160" height="120.00000000000001" as="geometry" />
        </mxCell>
        <mxCell id="xA-Apx7FD3ZzfJ_9MI9g-20" value="容器&lt;br&gt;docker&lt;br&gt;containerd" style="text;html=1;strokeColor=none;fillColor=none;align=center;verticalAlign=middle;whiteSpace=wrap;rounded=0;shadow=0;fontSize=27;fontColor=#FFFFFF;fontStyle=1" vertex="1" parent="xA-Apx7FD3ZzfJ_9MI9g-21">
          <mxGeometry x="6.575194897236007" y="25" width="146.8462083628632" height="50" as="geometry" />
        </mxCell>
        <mxCell id="xA-Apx7FD3ZzfJ_9MI9g-22" value="" style="group" vertex="1" connectable="0" parent="xA-Apx7FD3ZzfJ_9MI9g-39">
          <mxGeometry x="380" y="140" width="170" height="120" as="geometry" />
        </mxCell>
        <mxCell id="xA-Apx7FD3ZzfJ_9MI9g-23" value="" style="rounded=1;whiteSpace=wrap;html=1;fillColor=#FFD966;strokeColor=#FFFFFF;strokeWidth=1;" vertex="1" parent="xA-Apx7FD3ZzfJ_9MI9g-22">
          <mxGeometry x="1" width="170" height="120" as="geometry" />
        </mxCell>
        <mxCell id="xA-Apx7FD3ZzfJ_9MI9g-24" value="计算&lt;br&gt;kvm&lt;br&gt;bareMetal" style="text;html=1;strokeColor=none;fillColor=none;align=center;verticalAlign=middle;whiteSpace=wrap;rounded=0;shadow=0;fontSize=27;fontColor=#FFFFFF;fontStyle=1" vertex="1" parent="xA-Apx7FD3ZzfJ_9MI9g-22">
          <mxGeometry x="6.986144578313258" y="25" width="156.02409638554215" height="50" as="geometry" />
        </mxCell>
        <mxCell id="xA-Apx7FD3ZzfJ_9MI9g-25" value="" style="group" vertex="1" connectable="0" parent="xA-Apx7FD3ZzfJ_9MI9g-39">
          <mxGeometry x="567" y="140" width="170" height="120" as="geometry" />
        </mxCell>
        <mxCell id="xA-Apx7FD3ZzfJ_9MI9g-26" value="" style="rounded=1;whiteSpace=wrap;html=1;fillColor=#FFD966;strokeColor=#FFFFFF;strokeWidth=1;" vertex="1" parent="xA-Apx7FD3ZzfJ_9MI9g-25">
          <mxGeometry width="170" height="120" as="geometry" />
        </mxCell>
        <mxCell id="xA-Apx7FD3ZzfJ_9MI9g-27" value="网络&lt;br&gt;sdn&lt;br&gt;" style="text;html=1;strokeColor=none;fillColor=none;align=center;verticalAlign=middle;whiteSpace=wrap;rounded=0;shadow=0;fontSize=27;fontColor=#FFFFFF;fontStyle=1" vertex="1" parent="xA-Apx7FD3ZzfJ_9MI9g-25">
          <mxGeometry x="6.986144578313258" y="25" width="156.02409638554215" height="50" as="geometry" />
        </mxCell>
        <mxCell id="xA-Apx7FD3ZzfJ_9MI9g-28" value="" style="group" vertex="1" connectable="0" parent="xA-Apx7FD3ZzfJ_9MI9g-39">
          <mxGeometry x="750" y="140" width="170" height="120" as="geometry" />
        </mxCell>
        <mxCell id="xA-Apx7FD3ZzfJ_9MI9g-29" value="" style="rounded=1;whiteSpace=wrap;html=1;strokeColor=#FFFFFF;strokeWidth=1;fillColor=#CC0000;" vertex="1" parent="xA-Apx7FD3ZzfJ_9MI9g-28">
          <mxGeometry width="170" height="120" as="geometry" />
        </mxCell>
        <mxCell id="xA-Apx7FD3ZzfJ_9MI9g-30" value="存储&lt;br&gt;ceph&lt;br&gt;" style="text;html=1;strokeColor=none;fillColor=none;align=center;verticalAlign=middle;whiteSpace=wrap;rounded=0;shadow=0;fontSize=27;fontColor=#FFFFFF;fontStyle=1" vertex="1" parent="xA-Apx7FD3ZzfJ_9MI9g-28">
          <mxGeometry x="6.986144578313258" y="25" width="156.02409638554215" height="50" as="geometry" />
        </mxCell>
        <mxCell id="xA-Apx7FD3ZzfJ_9MI9g-31" value="" style="group" vertex="1" connectable="0" parent="xA-Apx7FD3ZzfJ_9MI9g-39">
          <mxGeometry y="60" width="170" height="200" as="geometry" />
        </mxCell>
        <mxCell id="xA-Apx7FD3ZzfJ_9MI9g-32" value="" style="rounded=1;whiteSpace=wrap;html=1;strokeColor=#FFFFFF;strokeWidth=1;fillColor=#003366;" vertex="1" parent="xA-Apx7FD3ZzfJ_9MI9g-31">
          <mxGeometry width="170" height="200" as="geometry" />
        </mxCell>
        <mxCell id="xA-Apx7FD3ZzfJ_9MI9g-33" value="裸金属" style="text;html=1;strokeColor=none;fillColor=none;align=center;verticalAlign=middle;whiteSpace=wrap;rounded=0;shadow=0;fontSize=27;fontColor=#FFFFFF;fontStyle=1" vertex="1" parent="xA-Apx7FD3ZzfJ_9MI9g-31">
          <mxGeometry x="6.986144578313258" y="41.66666666666667" width="156.02409638554215" height="83.33333333333334" as="geometry" />
        </mxCell>
      </root>
    </mxGraphModel>
  </diagram>
  <diagram id="CvHFlYByhbGHV6HON6ab" name="Page-2">
    <mxGraphModel dx="2066" dy="1074" grid="1" gridSize="10" guides="1" tooltips="1" connect="1" arrows="1" fold="1" page="1" pageScale="1" pageWidth="4681" pageHeight="3300" math="0" shadow="0">
      <root>
        <mxCell id="0R_mIevTIfDxdQnX68P9-0" />
        <mxCell id="0R_mIevTIfDxdQnX68P9-1" parent="0R_mIevTIfDxdQnX68P9-0" />
        <mxCell id="8IOnvDrxRcLWv2jA8Hf4-0" value="" style="group" vertex="1" connectable="0" parent="0R_mIevTIfDxdQnX68P9-1">
          <mxGeometry x="270" y="380" width="240" height="350" as="geometry" />
        </mxCell>
        <mxCell id="8IOnvDrxRcLWv2jA8Hf4-1" value="集群规模：1335&lt;br&gt;云主机：8027&lt;br&gt;使用memory：237.7T&lt;br&gt;使用disk：4.8PB" style="rounded=1;whiteSpace=wrap;html=1;strokeColor=#FFFFFF;strokeWidth=1;gradientColor=none;fillColor=#B3B3B3;" vertex="1" parent="8IOnvDrxRcLWv2jA8Hf4-0">
          <mxGeometry width="240" height="350" as="geometry" />
        </mxCell>
        <mxCell id="8IOnvDrxRcLWv2jA8Hf4-2" value="博兴机房" style="text;html=1;strokeColor=none;fillColor=none;align=center;verticalAlign=middle;whiteSpace=wrap;rounded=0;shadow=0;fontSize=27;fontColor=#FFFFFF;fontStyle=1" vertex="1" parent="8IOnvDrxRcLWv2jA8Hf4-0">
          <mxGeometry width="240" height="50" as="geometry" />
        </mxCell>
        <mxCell id="8IOnvDrxRcLWv2jA8Hf4-3" value="" style="rounded=0;whiteSpace=wrap;html=1;strokeColor=#FFFFFF;strokeWidth=1;gradientColor=none;fillColor=#CCCCFF;" vertex="1" parent="0R_mIevTIfDxdQnX68P9-1">
          <mxGeometry x="180" y="840" width="920" height="430" as="geometry" />
        </mxCell>
        <mxCell id="8IOnvDrxRcLWv2jA8Hf4-4" value="Nova,Glance,Cinder 使用同一存储pool" style="text;html=1;strokeColor=none;fillColor=none;align=center;verticalAlign=middle;whiteSpace=wrap;rounded=0;shadow=0;fontSize=27;fontColor=#FFFFFF;fontStyle=1" vertex="1" parent="0R_mIevTIfDxdQnX68P9-1">
          <mxGeometry x="320" y="840" width="650" height="50" as="geometry" />
        </mxCell>
        <mxCell id="9GOsruX7ZAcM9XkK-i7c-39" value="" style="edgeStyle=orthogonalEdgeStyle;rounded=0;orthogonalLoop=1;jettySize=auto;html=1;fontSize=16;startArrow=classic;startFill=1;entryX=0.5;entryY=0;entryDx=0;entryDy=0;" edge="1" parent="0R_mIevTIfDxdQnX68P9-1" source="8IOnvDrxRcLWv2jA8Hf4-5" target="8IOnvDrxRcLWv2jA8Hf4-21">
          <mxGeometry relative="1" as="geometry" />
        </mxCell>
        <mxCell id="8IOnvDrxRcLWv2jA8Hf4-5" value="" style="rounded=0;whiteSpace=wrap;html=1;strokeColor=#FFFFFF;strokeWidth=1;gradientColor=none;fillColor=#999999;" vertex="1" parent="0R_mIevTIfDxdQnX68P9-1">
          <mxGeometry x="567.5" y="890" width="145" height="90" as="geometry" />
        </mxCell>
        <mxCell id="9GOsruX7ZAcM9XkK-i7c-37" value="" style="edgeStyle=orthogonalEdgeStyle;rounded=0;orthogonalLoop=1;jettySize=auto;html=1;fontSize=16;startArrow=classic;startFill=1;" edge="1" parent="0R_mIevTIfDxdQnX68P9-1" source="8IOnvDrxRcLWv2jA8Hf4-6" target="8IOnvDrxRcLWv2jA8Hf4-21">
          <mxGeometry relative="1" as="geometry">
            <Array as="points">
              <mxPoint x="325" y="1020" />
              <mxPoint x="325" y="1020" />
            </Array>
          </mxGeometry>
        </mxCell>
        <mxCell id="8IOnvDrxRcLWv2jA8Hf4-6" value="" style="rounded=0;whiteSpace=wrap;html=1;strokeColor=#FFFFFF;strokeWidth=1;gradientColor=none;fillColor=#999999;" vertex="1" parent="0R_mIevTIfDxdQnX68P9-1">
          <mxGeometry x="250" y="890" width="150" height="90" as="geometry" />
        </mxCell>
        <mxCell id="9GOsruX7ZAcM9XkK-i7c-40" value="" style="edgeStyle=orthogonalEdgeStyle;rounded=0;orthogonalLoop=1;jettySize=auto;html=1;fontSize=16;startArrow=classic;startFill=1;" edge="1" parent="0R_mIevTIfDxdQnX68P9-1" source="8IOnvDrxRcLWv2jA8Hf4-7" target="8IOnvDrxRcLWv2jA8Hf4-21">
          <mxGeometry relative="1" as="geometry">
            <Array as="points">
              <mxPoint x="960" y="1030" />
              <mxPoint x="960" y="1030" />
            </Array>
          </mxGeometry>
        </mxCell>
        <mxCell id="8IOnvDrxRcLWv2jA8Hf4-7" value="" style="rounded=0;whiteSpace=wrap;html=1;strokeColor=#FFFFFF;strokeWidth=1;gradientColor=none;fillColor=#999999;" vertex="1" parent="0R_mIevTIfDxdQnX68P9-1">
          <mxGeometry x="890" y="895" width="140" height="90" as="geometry" />
        </mxCell>
        <mxCell id="8IOnvDrxRcLWv2jA8Hf4-10" value="nova" style="text;html=1;strokeColor=none;align=center;verticalAlign=middle;whiteSpace=wrap;rounded=1;shadow=0;fontSize=16;fontColor=#FFFFFF;fontStyle=1;fillColor=#67AB9F;" vertex="1" parent="0R_mIevTIfDxdQnX68P9-1">
          <mxGeometry x="265" y="911" width="120" height="20" as="geometry" />
        </mxCell>
        <mxCell id="8IOnvDrxRcLWv2jA8Hf4-11" value="glance" style="text;html=1;strokeColor=none;align=center;verticalAlign=middle;whiteSpace=wrap;rounded=1;shadow=0;fontSize=16;fontColor=#FFFFFF;fontStyle=1;fillColor=#67AB9F;" vertex="1" parent="0R_mIevTIfDxdQnX68P9-1">
          <mxGeometry x="585" y="910" width="120" height="20" as="geometry" />
        </mxCell>
        <mxCell id="8IOnvDrxRcLWv2jA8Hf4-12" value="cinder" style="text;html=1;strokeColor=none;align=center;verticalAlign=middle;whiteSpace=wrap;rounded=1;shadow=0;fontSize=16;fontColor=#FFFFFF;fontStyle=1;fillColor=#67AB9F;" vertex="1" parent="0R_mIevTIfDxdQnX68P9-1">
          <mxGeometry x="900" y="910" width="120" height="20" as="geometry" />
        </mxCell>
        <mxCell id="8IOnvDrxRcLWv2jA8Hf4-19" value="&lt;font style=&quot;font-size: 12px&quot;&gt;VM&lt;/font&gt;" style="ellipse;shape=doubleEllipse;whiteSpace=wrap;html=1;rounded=1;fontSize=16;strokeColor=#FFFFFF;strokeWidth=1;fillColor=#EA6B66;gradientColor=none;" vertex="1" parent="0R_mIevTIfDxdQnX68P9-1">
          <mxGeometry x="265" y="940" width="45" height="30" as="geometry" />
        </mxCell>
        <mxCell id="8IOnvDrxRcLWv2jA8Hf4-20" value="&lt;font style=&quot;font-size: 12px&quot;&gt;VM&lt;/font&gt;" style="ellipse;shape=doubleEllipse;whiteSpace=wrap;html=1;rounded=1;fontSize=16;strokeColor=#FFFFFF;strokeWidth=1;fillColor=#EA6B66;gradientColor=none;" vertex="1" parent="0R_mIevTIfDxdQnX68P9-1">
          <mxGeometry x="340" y="940" width="45" height="30" as="geometry" />
        </mxCell>
        <mxCell id="8IOnvDrxRcLWv2jA8Hf4-21" value="" style="rounded=1;whiteSpace=wrap;html=1;fontSize=16;strokeColor=#FFFFFF;strokeWidth=1;fillColor=#CCCCCC;" vertex="1" parent="0R_mIevTIfDxdQnX68P9-1">
          <mxGeometry x="180" y="1040" width="920" height="230" as="geometry" />
        </mxCell>
        <mxCell id="9GOsruX7ZAcM9XkK-i7c-0" value="Pool" style="ellipse;shape=doubleEllipse;whiteSpace=wrap;html=1;rounded=1;fontSize=16;strokeColor=#FFFFFF;strokeWidth=1;gradientColor=none;fillColor=#CC99FF;" vertex="1" parent="0R_mIevTIfDxdQnX68P9-1">
          <mxGeometry x="501.25" y="1060" width="287.5" height="100" as="geometry" />
        </mxCell>
        <mxCell id="9GOsruX7ZAcM9XkK-i7c-1" value="pg1" style="ellipse;shape=doubleEllipse;whiteSpace=wrap;html=1;aspect=fixed;rounded=1;fontSize=16;strokeColor=#FFFFFF;strokeWidth=1;gradientColor=none;fillColor=#9999FF;" vertex="1" parent="0R_mIevTIfDxdQnX68P9-1">
          <mxGeometry x="540" y="1080" width="40" height="40" as="geometry" />
        </mxCell>
        <mxCell id="9GOsruX7ZAcM9XkK-i7c-2" value="pg4" style="ellipse;shape=doubleEllipse;whiteSpace=wrap;html=1;aspect=fixed;rounded=1;fontSize=16;strokeColor=#FFFFFF;strokeWidth=1;gradientColor=none;fillColor=#9999FF;" vertex="1" parent="0R_mIevTIfDxdQnX68P9-1">
          <mxGeometry x="717.5" y="1100" width="40" height="40" as="geometry" />
        </mxCell>
        <mxCell id="9GOsruX7ZAcM9XkK-i7c-3" value="pg3" style="ellipse;shape=doubleEllipse;whiteSpace=wrap;html=1;aspect=fixed;rounded=1;fontSize=16;strokeColor=#FFFFFF;strokeWidth=1;gradientColor=none;fillColor=#9999FF;" vertex="1" parent="0R_mIevTIfDxdQnX68P9-1">
          <mxGeometry x="677.5" y="1080" width="40" height="40" as="geometry" />
        </mxCell>
        <mxCell id="9GOsruX7ZAcM9XkK-i7c-4" value="pg2" style="ellipse;shape=doubleEllipse;whiteSpace=wrap;html=1;aspect=fixed;rounded=1;fontSize=16;strokeColor=#FFFFFF;strokeWidth=1;gradientColor=none;fillColor=#9999FF;" vertex="1" parent="0R_mIevTIfDxdQnX68P9-1">
          <mxGeometry x="580" y="1110" width="40" height="40" as="geometry" />
        </mxCell>
        <mxCell id="9GOsruX7ZAcM9XkK-i7c-8" value="" style="group" vertex="1" connectable="0" parent="0R_mIevTIfDxdQnX68P9-1">
          <mxGeometry x="220" y="1150" width="120" height="120" as="geometry" />
        </mxCell>
        <mxCell id="9GOsruX7ZAcM9XkK-i7c-5" value="Node" style="rounded=0;whiteSpace=wrap;html=1;fontSize=16;strokeColor=#FFFFFF;strokeWidth=1;fillColor=#9999FF;gradientColor=none;labelPosition=center;verticalLabelPosition=top;align=center;verticalAlign=bottom;" vertex="1" parent="9GOsruX7ZAcM9XkK-i7c-8">
          <mxGeometry width="120" height="120" as="geometry" />
        </mxCell>
        <mxCell id="9GOsruX7ZAcM9XkK-i7c-6" value="ODS" style="whiteSpace=wrap;html=1;aspect=fixed;rounded=1;fontSize=16;strokeColor=#FFFFFF;strokeWidth=1;gradientColor=none;fillColor=#00FF80;" vertex="1" parent="9GOsruX7ZAcM9XkK-i7c-8">
          <mxGeometry x="10" y="50" width="40" height="40" as="geometry" />
        </mxCell>
        <mxCell id="9GOsruX7ZAcM9XkK-i7c-7" value="ODS" style="whiteSpace=wrap;html=1;aspect=fixed;rounded=1;fontSize=16;strokeColor=#FFFFFF;strokeWidth=1;gradientColor=none;fillColor=#00FF80;" vertex="1" parent="9GOsruX7ZAcM9XkK-i7c-8">
          <mxGeometry x="70" y="50" width="40" height="40" as="geometry" />
        </mxCell>
        <mxCell id="9GOsruX7ZAcM9XkK-i7c-9" value="" style="group" vertex="1" connectable="0" parent="0R_mIevTIfDxdQnX68P9-1">
          <mxGeometry x="360" y="1150" width="120" height="120" as="geometry" />
        </mxCell>
        <mxCell id="9GOsruX7ZAcM9XkK-i7c-10" value="Node" style="rounded=0;whiteSpace=wrap;html=1;fontSize=16;strokeColor=#FFFFFF;strokeWidth=1;fillColor=#9999FF;gradientColor=none;labelPosition=center;verticalLabelPosition=top;align=center;verticalAlign=bottom;" vertex="1" parent="9GOsruX7ZAcM9XkK-i7c-9">
          <mxGeometry width="120" height="120" as="geometry" />
        </mxCell>
        <mxCell id="9GOsruX7ZAcM9XkK-i7c-11" value="ODS" style="whiteSpace=wrap;html=1;aspect=fixed;rounded=1;fontSize=16;strokeColor=#FFFFFF;strokeWidth=1;gradientColor=none;fillColor=#00FF80;" vertex="1" parent="9GOsruX7ZAcM9XkK-i7c-9">
          <mxGeometry x="10" y="50" width="40" height="40" as="geometry" />
        </mxCell>
        <mxCell id="9GOsruX7ZAcM9XkK-i7c-12" value="ODS" style="whiteSpace=wrap;html=1;aspect=fixed;rounded=1;fontSize=16;strokeColor=#FFFFFF;strokeWidth=1;gradientColor=none;fillColor=#00FF80;" vertex="1" parent="9GOsruX7ZAcM9XkK-i7c-9">
          <mxGeometry x="70" y="50" width="40" height="40" as="geometry" />
        </mxCell>
        <mxCell id="9GOsruX7ZAcM9XkK-i7c-13" value="" style="group" vertex="1" connectable="0" parent="0R_mIevTIfDxdQnX68P9-1">
          <mxGeometry x="800" y="1140" width="120" height="120" as="geometry" />
        </mxCell>
        <mxCell id="9GOsruX7ZAcM9XkK-i7c-14" value="Node" style="rounded=0;whiteSpace=wrap;html=1;fontSize=16;strokeColor=#FFFFFF;strokeWidth=1;fillColor=#9999FF;gradientColor=none;labelPosition=center;verticalLabelPosition=top;align=center;verticalAlign=bottom;" vertex="1" parent="9GOsruX7ZAcM9XkK-i7c-13">
          <mxGeometry width="120" height="120" as="geometry" />
        </mxCell>
        <mxCell id="9GOsruX7ZAcM9XkK-i7c-15" value="ODS" style="whiteSpace=wrap;html=1;aspect=fixed;rounded=1;fontSize=16;strokeColor=#FFFFFF;strokeWidth=1;gradientColor=none;fillColor=#00FF80;" vertex="1" parent="9GOsruX7ZAcM9XkK-i7c-13">
          <mxGeometry x="10" y="50" width="40" height="40" as="geometry" />
        </mxCell>
        <mxCell id="9GOsruX7ZAcM9XkK-i7c-16" value="ODS" style="whiteSpace=wrap;html=1;aspect=fixed;rounded=1;fontSize=16;strokeColor=#FFFFFF;strokeWidth=1;gradientColor=none;fillColor=#00FF80;" vertex="1" parent="9GOsruX7ZAcM9XkK-i7c-13">
          <mxGeometry x="70" y="50" width="40" height="40" as="geometry" />
        </mxCell>
        <mxCell id="9GOsruX7ZAcM9XkK-i7c-17" value="" style="group" vertex="1" connectable="0" parent="0R_mIevTIfDxdQnX68P9-1">
          <mxGeometry x="950" y="1140" width="120" height="120" as="geometry" />
        </mxCell>
        <mxCell id="9GOsruX7ZAcM9XkK-i7c-18" value="Node" style="rounded=0;whiteSpace=wrap;html=1;fontSize=16;strokeColor=#FFFFFF;strokeWidth=1;fillColor=#9999FF;gradientColor=none;labelPosition=center;verticalLabelPosition=top;align=center;verticalAlign=bottom;" vertex="1" parent="9GOsruX7ZAcM9XkK-i7c-17">
          <mxGeometry width="120" height="120" as="geometry" />
        </mxCell>
        <mxCell id="9GOsruX7ZAcM9XkK-i7c-19" value="ODS" style="whiteSpace=wrap;html=1;aspect=fixed;rounded=1;fontSize=16;strokeColor=#FFFFFF;strokeWidth=1;gradientColor=none;fillColor=#00FF80;" vertex="1" parent="9GOsruX7ZAcM9XkK-i7c-17">
          <mxGeometry x="10" y="50" width="40" height="40" as="geometry" />
        </mxCell>
        <mxCell id="9GOsruX7ZAcM9XkK-i7c-20" value="ODS" style="whiteSpace=wrap;html=1;aspect=fixed;rounded=1;fontSize=16;strokeColor=#FFFFFF;strokeWidth=1;gradientColor=none;fillColor=#00FF80;" vertex="1" parent="9GOsruX7ZAcM9XkK-i7c-17">
          <mxGeometry x="70" y="50" width="40" height="40" as="geometry" />
        </mxCell>
        <mxCell id="9GOsruX7ZAcM9XkK-i7c-29" value="" style="curved=1;endArrow=classic;html=1;fontSize=16;exitX=-0.025;exitY=0.7;exitDx=0;exitDy=0;exitPerimeter=0;entryX=0.5;entryY=0;entryDx=0;entryDy=0;" edge="1" parent="0R_mIevTIfDxdQnX68P9-1" source="9GOsruX7ZAcM9XkK-i7c-1" target="9GOsruX7ZAcM9XkK-i7c-6">
          <mxGeometry width="50" height="50" relative="1" as="geometry">
            <mxPoint x="1020" y="820" as="sourcePoint" />
            <mxPoint x="640" y="780" as="targetPoint" />
            <Array as="points">
              <mxPoint x="480" y="1080" />
              <mxPoint x="410" y="1070" />
              <mxPoint x="360" y="1080" />
              <mxPoint x="310" y="1120" />
            </Array>
          </mxGeometry>
        </mxCell>
        <mxCell id="9GOsruX7ZAcM9XkK-i7c-30" value="" style="curved=1;endArrow=classic;html=1;fontSize=16;entryX=0.5;entryY=0;entryDx=0;entryDy=0;entryPerimeter=0;" edge="1" parent="0R_mIevTIfDxdQnX68P9-1" target="9GOsruX7ZAcM9XkK-i7c-11">
          <mxGeometry width="50" height="50" relative="1" as="geometry">
            <mxPoint x="540" y="1110" as="sourcePoint" />
            <mxPoint x="572.5" y="1175" as="targetPoint" />
            <Array as="points">
              <mxPoint x="500" y="1100" />
              <mxPoint x="360" y="1090" />
            </Array>
          </mxGeometry>
        </mxCell>
        <mxCell id="9GOsruX7ZAcM9XkK-i7c-31" value="" style="curved=1;endArrow=classic;html=1;fontSize=16;exitX=0;exitY=1;exitDx=0;exitDy=0;entryX=0.5;entryY=0;entryDx=0;entryDy=0;" edge="1" parent="0R_mIevTIfDxdQnX68P9-1" source="9GOsruX7ZAcM9XkK-i7c-1" target="9GOsruX7ZAcM9XkK-i7c-15">
          <mxGeometry width="50" height="50" relative="1" as="geometry">
            <mxPoint x="560" y="1225" as="sourcePoint" />
            <mxPoint x="610" y="1175" as="targetPoint" />
            <Array as="points">
              <mxPoint x="520" y="1150" />
              <mxPoint x="580" y="1180" />
            </Array>
          </mxGeometry>
        </mxCell>
        <mxCell id="9GOsruX7ZAcM9XkK-i7c-32" value="" style="curved=1;endArrow=classic;html=1;fontSize=16;entryX=1;entryY=0.5;entryDx=0;entryDy=0;" edge="1" parent="0R_mIevTIfDxdQnX68P9-1" source="9GOsruX7ZAcM9XkK-i7c-2" target="9GOsruX7ZAcM9XkK-i7c-12">
          <mxGeometry width="50" height="50" relative="1" as="geometry">
            <mxPoint x="550" y="1260" as="sourcePoint" />
            <mxPoint x="600" y="1210" as="targetPoint" />
            <Array as="points">
              <mxPoint x="760" y="1190" />
            </Array>
          </mxGeometry>
        </mxCell>
        <mxCell id="9GOsruX7ZAcM9XkK-i7c-33" value="" style="curved=1;endArrow=classic;html=1;fontSize=16;exitX=1;exitY=0.5;exitDx=0;exitDy=0;entryX=0.5;entryY=0;entryDx=0;entryDy=0;" edge="1" parent="0R_mIevTIfDxdQnX68P9-1" source="9GOsruX7ZAcM9XkK-i7c-2" target="9GOsruX7ZAcM9XkK-i7c-16">
          <mxGeometry width="50" height="50" relative="1" as="geometry">
            <mxPoint x="690" y="1260" as="sourcePoint" />
            <mxPoint x="740" y="1210" as="targetPoint" />
            <Array as="points">
              <mxPoint x="900" y="1120" />
            </Array>
          </mxGeometry>
        </mxCell>
        <mxCell id="9GOsruX7ZAcM9XkK-i7c-34" value="" style="curved=1;endArrow=classic;html=1;fontSize=16;entryX=0.5;entryY=0;entryDx=0;entryDy=0;" edge="1" parent="0R_mIevTIfDxdQnX68P9-1" target="9GOsruX7ZAcM9XkK-i7c-19">
          <mxGeometry width="50" height="50" relative="1" as="geometry">
            <mxPoint x="760" y="1120" as="sourcePoint" />
            <mxPoint x="985" y="1060" as="targetPoint" />
            <Array as="points">
              <mxPoint x="870" y="1070" />
              <mxPoint x="935" y="1120" />
            </Array>
          </mxGeometry>
        </mxCell>
      </root>
    </mxGraphModel>
  </diagram>
</mxfile>
